# xmcd
#
# Track frame offsets: 
#        182
#        17960
#        44280
#        69095
#        84277
#        105115
#
# Disc length: 1733 seconds
#
# Revision: 0
# Processed by: cddbd v1.5.2PL0 Copyright (c) Steve Scherf et al.
# Submitted via: ExactAudioCopyFreeDBPlugin 1.0
#
DISCID=3706c306
DTITLE=Boys II Men - The Hits From The Orignals (Promotional CD)
DYEAR=1900
DGENRE=R&B
TTITLE0=Motownphilly
TTITLE1=The  End Of The Road
TTITLE2=On Bended Knee
TTITLE3=Water Runs Dry
TTITLE4=Baby C'mon
TTITLE5=Doin' Just Fine
EXTD=
EXTT0=
EXTT1=
EXTT2=
EXTT3=
EXTT4=
EXTT5=
PLAYORDER=
